<svg xmlns="http://www.w3.org/2000/svg" viewBox="0 0 108.31 100"><defs><style>.a{fill:#214880;}.b{fill:#c6c7cc;}.c{fill:#fff;}.d{fill:#244881;}.e,.f{fill:none;stroke-miterlimit:10;}.e{stroke:#fff;}.f{stroke:#fcfdff;}</style></defs><path class="a" d="M41.9,99.35a5.85,5.85,0,0,1-.71-.71c0-.06,2-2,3.32-3.21C50,90.35,56.31,87.61,62,87.81a16.11,16.11,0,0,1,6.24,1.51l3.71,1.5L74.77,92a17.77,17.77,0,0,0,2.44.81,18.48,18.48,0,0,0,7.27,0,6,6,0,0,1,.71-.12,23.85,23.85,0,0,1-2.38,1.55,13.93,13.93,0,0,1-7.58,1.67,13.38,13.38,0,0,1-5-1.48,27.8,27.8,0,0,1-4.37-2.9,12.19,12.19,0,0,0-3.55-2.37,8.5,8.5,0,0,0-3.83-.67,9.11,9.11,0,0,0-2.73.5,19.79,19.79,0,0,0-6.41,4.1c-1.11,1-3.68,3.57-5.26,5.34-.79.88-1.45,1.6-1.46,1.6l-.72-.65Z"/><path class="a" d="M65.74,98.58a56.12,56.12,0,0,0-9.29-8.36c-.7-.47-.75-.52-.57-.54a6.29,6.29,0,0,1,2.17.88,34.73,34.73,0,0,1,9,6.62l1.12,1.12-.65.71a9.84,9.84,0,0,1-.7.7S66.3,99.2,65.74,98.58Z"/><path class="a" d="M31.44,96.45A14.8,14.8,0,0,1,26,94.7a19.37,19.37,0,0,1-2.2-1.43s.17,0,.38,0a13.58,13.58,0,0,0,4,.43c3.23,0,3.78-.15,10-2.84l3.33-1.44A13.85,13.85,0,0,1,48.1,88a18.29,18.29,0,0,1,3.82.36c1.51.26,1.56.27,1.56.35s-.38.15-1.17,0a9.46,9.46,0,0,0-4.58.29,11.6,11.6,0,0,0-4.14,2.61A18.63,18.63,0,0,1,37,95.77a12.76,12.76,0,0,1-5.52.68Z"/><path class="a" d="M25.82,90.2a18.34,18.34,0,0,1-9.1-3.51,22.1,22.1,0,0,1-2.55-2.46,1.11,1.11,0,0,1,.41.13,20.24,20.24,0,0,0,3.66,1.38,18.77,18.77,0,0,0,4.68.68,67.9,67.9,0,0,1,10.3,1.08l2,.33.24,0-.18-.36a1.69,1.69,0,0,0-.6-.66,5,5,0,0,0-1.68-.7c-2.65-.8-4.76-2.76-6.39-6-.59-1.14-2.16-4.62-2.11-4.67a56,56,0,0,1,4.75,4.75c3.41,3.59,3.86,4,4.63,4.61a21.92,21.92,0,0,0,4.93,2.65l.29.12-.22.06c-.28.09-4,1-6.83,1.7-1.23.3-2.54.59-2.91.65a21.85,21.85,0,0,1-3.29.13Z"/><path class="a" d="M80.82,89.47a18.83,18.83,0,0,1-3.11-.56c-.92-.21-3-.65-4.57-1s-2.93-.61-3-.64a5.82,5.82,0,0,1,1.2-.65,18,18,0,0,0,3-1.65c1.53-1.08,2.42-2,5.45-5.36,1.29-1.46,2.63-2.95,3-3.32a8.32,8.32,0,0,1,1.49-1.37S83,78.19,82.45,79.3a14.86,14.86,0,0,1-2.92,4.27,7.53,7.53,0,0,1-2.77,1.71c-2.16.91-2.18.91-2.62,1.38s-.4.44-.3.54.35.06,2.46-.34a60,60,0,0,1,9.27-1.2c1.11-.06,2.33-.16,2.71-.22a16.78,16.78,0,0,0,6.38-2.3A1.05,1.05,0,0,1,95,83a6.58,6.58,0,0,1-.63.78,15.92,15.92,0,0,1-5.25,4,16.11,16.11,0,0,1-8.33,1.75Z"/><path class="a" d="M24.08,83.52c-.64-.16-1.88-.41-2.76-.57a22.66,22.66,0,0,1-5.58-1.6,22.21,22.21,0,0,1-4.62-2.82A23.74,23.74,0,0,1,8,75.36a24,24,0,0,1-2.81-4.59l-.2-.43.21.18,1,.94a16.84,16.84,0,0,0,4.51,3.23A84.26,84.26,0,0,1,21.22,81.3a11.1,11.1,0,0,0,2,1.36,3.53,3.53,0,0,0-.21-1.21,11.89,11.89,0,0,0-.87-1,13.76,13.76,0,0,1-2.95-4.15,19.17,19.17,0,0,1-1.73-6.22c-.12-.83-.39-2.5-.61-3.71s-.38-2.21-.36-2.22a8.1,8.1,0,0,1,1.25,1.64C18.62,67.13,19,68,21.07,74a40.26,40.26,0,0,0,3.54,8.23c.49.87.89,1.59.89,1.61S25.22,83.79,24.08,83.52Z"/><path class="a" d="M83.79,82.46a26.13,26.13,0,0,0,1.72-3.12,53.59,53.59,0,0,0,2.22-6.15c1.94-6,2.18-6.63,3-8.08a14,14,0,0,1,1.32-1.93c.07.07-1.07,7.42-1.44,9.29a13.24,13.24,0,0,1-3.68,7c-1.08,1.16-1.25,1.45-1.12,1.94,0,.11.09.16.23.16s.32-.07,1.15-.74c1-.79,7.38-5,10.4-6.89a21.15,21.15,0,0,0,5-3.87c.62-.63,1.14-1.15,1.15-1.15a16.39,16.39,0,0,1-.94,2.08,20.66,20.66,0,0,1-9,9A22.51,22.51,0,0,1,88,82c-1.07.23-2.43.55-4.46,1-.14,0-.11,0,.26-.6Z"/><path class="a" d="M14,72.93A43.22,43.22,0,0,1,5.6,66.48a18.23,18.23,0,0,1-5.2-9,20.27,20.27,0,0,1-.4-3.1v-.4l.3.65a23.38,23.38,0,0,0,4.15,6c.48.54,1.13,1.29,1.43,1.66.9,1.1,3.43,4.46,5.17,6.87a10.48,10.48,0,0,0,1.32,1.61,3.6,3.6,0,0,0,.39.27c.12,0,.26-.47.26-.8s-.07-.6-.58-1.37A9.92,9.92,0,0,1,11,65a13,13,0,0,1-.12-2.29,47.52,47.52,0,0,1,.6-6.95c.19-1.58.35-2.89.35-2.91s0,0,.09,0a11.41,11.41,0,0,1,.65,2.75c.17,1.09.64,5.52,1,9.13.17,1.83.36,3.68.43,4.12a18.79,18.79,0,0,0,1.16,4.49c.11.25.18.46.15.46s-.63-.38-1.36-.84Z"/><path class="a" d="M93.53,72.56a19.58,19.58,0,0,0,.79-2.39A26.67,26.67,0,0,0,95,64.56c.12-2.46.2-3.45.39-5.16s.91-7.22,1-7.48l.06-.22,0,.18c.11.46.91,5,1,5.93a21.94,21.94,0,0,1,.23,4.62,10.77,10.77,0,0,1-1.58,5.49,1.92,1.92,0,0,0-.41,1,1.35,1.35,0,0,0,.27,1,3.51,3.51,0,0,0,.68-.63,22.14,22.14,0,0,0,2.19-3,46.61,46.61,0,0,1,4.68-6.35c1.44-1.63,1.66-1.9,2.17-2.58a21.73,21.73,0,0,0,2-3.46l.6-1.23v.88a14.81,14.81,0,0,1-1.67,6.63c-1.54,3.2-4.09,6-8.35,9.31-1.1.84-4.67,3.3-4.8,3.3s0-.09,0-.2Z"/><path class="a" d="M6.93,58.51c-.42-.57-1.16-1.55-1.65-2.19a21,21,0,0,1-4-6.89A22.52,22.52,0,0,1,.09,41.22a17.46,17.46,0,0,1,.33-3.45s.08.17.1.43a15.28,15.28,0,0,0,1.29,4.38c.26.6.78,1.88,1.17,2.83L4,48a20.3,20.3,0,0,1,1.14,4.37,16.42,16.42,0,0,0,1,3.71c.17.39.25.49.5.62s.35.17.49-.29c.09-.26.08-.4-.1-1.32a18.18,18.18,0,0,1-.18-4.54,17.51,17.51,0,0,1,1.86-6.06c1.43-2.69,2.71-5,2.73-4.89s-.23,2.49-.41,3.74c-.21,1.43-.67,3.41-2.27,9.73a28.59,28.59,0,0,0-.92,5c-.08.78-.16,1.43-.17,1.44l-.76-1Z"/><path class="a" d="M100.7,57.61a25.54,25.54,0,0,0-1.46-6.81c-.42-1.22-.95-3-1.31-4.5a50.34,50.34,0,0,1-1.22-7l0-.72L97,39a60.23,60.23,0,0,1,3.57,6.71,15.54,15.54,0,0,1,.77,8.55c-.12.63-.13.73,0,.94.19.43.21.44.49.32s.29-.19.5-.65a6.12,6.12,0,0,0,.58-2.1c.36-2.73,1.08-5.22,2.9-10.11a32.35,32.35,0,0,0,1.63-5.16,4.93,4.93,0,0,1,.25-.88,11.73,11.73,0,0,1,.35,2.13,32.57,32.57,0,0,1,0,4.73,22.4,22.4,0,0,1-3,8.93,24,24,0,0,1-2,3c-.38.48-1,1.34-1.41,1.89s-.73,1-.75,1,0-.32-.06-.7Z"/><path class="a" d="M5.45,43.56c-.6-2.12-1-3.41-1.41-4.72-1.37-4.27-1.65-5.7-1.66-8.2a16.31,16.31,0,0,1,1.42-6.8,14.93,14.93,0,0,1,1-2.05c.09-.13.09-.11,0,.22A15.22,15.22,0,0,0,4.79,24,22.64,22.64,0,0,0,5,27.21a53.93,53.93,0,0,1,.43,7.44,34.68,34.68,0,0,1-.1,3.76c0,.52-.1,1.07-.1,1.22a2.11,2.11,0,0,0,.41,1c.1.07.56-.35.66-.61a10.41,10.41,0,0,0,.31-1.2c.79-3.51,1.93-5.67,4-7.64C11,30.88,12,29.87,12.8,29s1.54-1.63,1.56-1.62a14.41,14.41,0,0,1-.58,2.32c-.5,1.51-1,2.47-3.08,5.64a58.4,58.4,0,0,0-4,6.74c-.45.9-.88,1.73-.94,1.85l-.12.21Z"/><path class="a" d="M102.38,42.81c0-.08-.19-.43-.34-.79a27.64,27.64,0,0,0-3.27-5.64c-3.61-5.25-4.13-6.11-4.76-7.89a12,12,0,0,1-.62-2.24s.79.75,1.72,1.69,2.14,2.16,2.69,2.7a8.8,8.8,0,0,1,1.53,1.81,15,15,0,0,1,2.07,5c.14.58.29,1.15.33,1.26s.61.73.71.67a2.4,2.4,0,0,0,.2-.33c.18-.35.18-.56,0-3.32a56.31,56.31,0,0,1,.05-8.71,45.9,45.9,0,0,0,.15-6.22l0-.35.25.4a22.07,22.07,0,0,1,1.42,3,21.36,21.36,0,0,1,.86,3.44,14.41,14.41,0,0,1,.12,2.52,20.05,20.05,0,0,1-1.12,6.8c-.21.69-.7,2.37-1.1,3.72s-.72,2.48-.74,2.53,0,0-.09-.08Z"/><path class="a" d="M7.86,30c0-.09-.05-1.26-.11-2.62a54.58,54.58,0,0,1,.07-7.62A14.8,14.8,0,0,1,8.75,17a14,14,0,0,1,1.46-2.28,18.19,18.19,0,0,1,2-2,2.26,2.26,0,0,1-.23.59,23.19,23.19,0,0,0-1.64,6A36.94,36.94,0,0,1,8.86,25a9.92,9.92,0,0,0-.5,1.78c0,.49.08.75.25.88s.44,0,1-1.1a14.89,14.89,0,0,1,3.09-4.28c.23-.21,1-.86,1.8-1.45a31.65,31.65,0,0,0,3.84-3.35l.74-.8-.14.51a9.63,9.63,0,0,1-1.38,2.94,29,29,0,0,1-5.06,5.55c-1,.87-2.38,2.24-3.17,3.05C8.22,29.82,7.86,30.16,7.86,30Z"/><path class="a" d="M97.58,26.74c-6-5.46-7.24-6.75-8.21-8.66A11.57,11.57,0,0,1,88.55,16a4.07,4.07,0,0,1,.8.71,29,29,0,0,0,3.62,3,21.06,21.06,0,0,1,2.91,2.4,14.9,14.9,0,0,1,2.26,3.23c.4.75.78,1.23,1,1.23s.39-.27.39-.49-.26-1-.58-2c-1.07-3.45-1.34-4.44-2-7.22a19,19,0,0,0-1.43-4.58c-.4-.82-.37-.82.56,0a11.82,11.82,0,0,1,3.78,6.57,25.05,25.05,0,0,1,.22,6c0,1.88-.09,3.57-.1,3.75l0,.32-2.33-2.12Z"/><path class="a" d="M13.1,18.65a20.79,20.79,0,0,1,.68-2.79,14.15,14.15,0,0,1,6.83-8.4,16.21,16.21,0,0,1,2.19-1s-2.48,3.94-3.34,5.21A35,35,0,0,1,17,15a41,41,0,0,1-3.89,3.69Z"/><path class="a" d="M93.36,16.62a23.78,23.78,0,0,1-5.75-6.39C87,9.35,86.11,8,85.55,7.16a11,11,0,0,1-1-1.51,8.72,8.72,0,0,1,1.81.67,15.54,15.54,0,0,1,7.72,9.44,8.13,8.13,0,0,1,.34,1.73l-1.09-.87Z"/><polygon class="b" points="47.26 0 60.9 12.15 60.9 63.39 47.26 75.53 47.26 0"/><polygon class="a" points="63.32 13.98 75.42 23.88 75.42 65.64 63.32 75.53 63.32 13.98"/><polygon class="a" points="44.88 13.98 32.77 23.88 32.77 65.64 44.88 75.53 44.88 13.98"/><polygon class="c" points="65.63 46.4 65.41 46.31 69.26 29.56 69.48 29.64 65.63 46.4"/><rect class="c" x="69.37" y="29.6" width="0.23" height="16.76"/><polygon class="c" points="42.72 46.4 42.93 46.31 39.08 29.56 38.87 29.64 42.72 46.4"/><polygon class="c" points="34.74 46.41 39.08 29.65 38.87 29.55 34.52 46.31 34.74 46.41"/><rect class="c" x="38.86" y="29.6" width="0.23" height="16.76"/><path class="c" d="M34,45.68A1.1,1.1,0,0,0,33,47.44s2,3.82,5.69,3.82,5.69-3.82,5.69-3.82a1.1,1.1,0,0,0-1.06-1.76Z"/><path class="d" d="M38.44,29.05a.63.63,0,0,1,.53-.69c.3,0,.52.31.53.69v.36a1.13,1.13,0,0,1-1.07,0Zm.23,0c0,.22.14.4.3.4a.37.37,0,0,0,.31-.4v-.22a.72.72,0,0,0-.61,0Z"/><path class="e" d="M38.44,29.05a.63.63,0,0,1,.53-.69c.3,0,.52.31.53.69v.36a1.13,1.13,0,0,1-1.07,0Zm.23,0c0,.22.14.4.3.4a.37.37,0,0,0,.31-.4v-.22a.72.72,0,0,0-.61,0Z"/><path class="e" d="M38.44,29.05a.63.63,0,0,1,.53-.69c.3,0,.52.31.53.69v.36a1.13,1.13,0,0,1-1.07,0Zm.23,0c0,.22.14.4.3.4a.37.37,0,0,0,.31-.4v-.22a.72.72,0,0,0-.61,0Z"/><path class="c" d="M72.53,26.8c0-.17-.14-.35-.27-.33s-.14.1-.17.19,0,.2-.08.3a.82.82,0,0,1-.31.43h0l-2,.4s-1.76.35-6.49-1.33-6.36-1.59-6.36-1.59c-1.09.09-2,.49-2,.89A11,11,0,0,0,54.94,27c0,.28,1,.45,2.06.37a21,21,0,0,1,6.37.55c4.59,1.4,6.42.94,6.42.94,1.07-.26,2.09-.53,2.26-.59l.13-.12.13-.15A1.62,1.62,0,0,0,72.53,26.8Z"/><path class="c" d="M74.12,45.8a1.14,1.14,0,0,1,1.1,1.79s-2.12,4.25-5.85,4.25-5.85-4.25-5.85-4.25a1.14,1.14,0,0,1,1.1-1.79Z"/><path class="c" d="M69.9,29.44a1.17,1.17,0,0,1-1.06,0v-.39a.55.55,0,1,1,1.06,0Zm-.23-.61a.7.7,0,0,0-.6,0v.22c0,.22.13.4.3.4s.3-.18.3-.4Z"/><path class="c" d="M69.9,29.44a1.17,1.17,0,0,1-1.06,0v-.39a.55.55,0,1,1,1.06,0Zm-.23-.61a.7.7,0,0,0-.6,0v.22c0,.22.13.4.3.4s.3-.18.3-.4Z"/><path class="d" d="M69.9,29.44a1.17,1.17,0,0,1-1.06,0v-.39a.55.55,0,1,1,1.06,0Zm-.23-.61a.7.7,0,0,0-.6,0v.22c0,.22.13.4.3.4s.3-.18.3-.4Z"/><path class="f" d="M69.9,29.44a1.17,1.17,0,0,1-1.06,0v-.39a.55.55,0,1,1,1.06,0Zm-.23-.61a.7.7,0,0,0-.6,0v.22c0,.22.13.4.3.4s.3-.18.3-.4Z"/><path class="f" d="M69.9,29.44a1.17,1.17,0,0,1-1.06,0v-.39a.55.55,0,1,1,1.06,0Zm-.23-.61a.7.7,0,0,0-.6,0v.22c0,.22.13.4.3.4s.3-.18.3-.4Z"/><path class="c" d="M35.82,26.8c0-.17.13-.35.26-.33s.14.1.18.19,0,.2.07.3a.82.82,0,0,0,.31.43h0l2,.4s1.76.35,6.49-1.33,6.32-1.56,6.32-1.56c1.09.12,2,.51,2,.86a6.72,6.72,0,0,1-.05,1.2c0,.31-1,.49-2.07.41a21,21,0,0,0-6.37.55c-4.59,1.4-6.42.94-6.42.94-1.07-.26-2.08-.53-2.26-.59l-.13-.12a1.48,1.48,0,0,1-.34-1.36Z"/><path class="c" d="M54.22,57.57h0c-.89,0-1-.43-1-.43a15.31,15.31,0,0,1-.54-3.92s.56-28.7.78-28.7h1.48c.22,0,.93,30.68.93,30.68C55.84,56.5,55.12,57.57,54.22,57.57Z"/><path class="c" d="M58.16,59.65s-.9,0-2,0H52.34c-1.1,0-2,0-2,0h0c0-1.72,1.1-3.11,1.74-3.11h4.45c.64,0,1.63,1.39,1.63,3.11Z"/><ellipse class="c" cx="54.2" cy="23.21" rx="1.17" ry="1.55"/><path class="c" d="M54.83,21.18c0,.54-.28,1-.63,1s-.63-.43-.63-1,.43-2.1.63-2.1A4.88,4.88,0,0,1,54.83,21.18Z"/><path class="c" d="M58.66,61H49.84c-.09,0-.16-.33-.16-.74h0c0-.41.07-.75.16-.75h8.82c.09,0,.16.34.16.75h0C58.82,60.65,58.75,61,58.66,61Z"/><polygon class="c" points="73.22 46.29 73.44 46.21 69.59 29.45 69.37 29.54 73.22 46.29"/></svg>