<svg xmlns="http://www.w3.org/2000/svg" viewBox="0 0 300 81.14"><defs><style>.a{fill:#214880;}.b{fill:#c6c7cc;}.c{fill:#fff;}.d{fill:#244881;}.e,.f{fill:none;stroke-miterlimit:10;}.e{stroke:#fff;}.f{stroke:#fcfdff;}.g{fill:#336;}</style></defs><path class="a" d="M34,80.61a5.93,5.93,0,0,1-.58-.57c0-.05,1.64-1.64,2.7-2.61,4.48-4.12,9.57-6.34,14.17-6.18a13.12,13.12,0,0,1,5.06,1.22c.71.3,2.07.85,3,1.22s2,.8,2.3.92a12.38,12.38,0,0,0,2,.66,15,15,0,0,0,5.9,0l.58-.1a19.11,19.11,0,0,1-1.94,1.26A11.37,11.37,0,0,1,61,77.8a10.74,10.74,0,0,1-4-1.2,22.31,22.31,0,0,1-3.55-2.36,9.94,9.94,0,0,0-2.88-1.92,6.78,6.78,0,0,0-3.11-.54,7.28,7.28,0,0,0-2.22.4A16.13,16.13,0,0,0,40,75.51c-.9.79-3,2.9-4.26,4.33-.65.71-1.18,1.3-1.19,1.3L34,80.61Z"/><path class="a" d="M53.34,80a45.21,45.21,0,0,0-7.54-6.78c-.57-.39-.61-.42-.46-.44a5,5,0,0,1,1.76.71,28.36,28.36,0,0,1,7.3,5.37l.9.91-.53.58a6.28,6.28,0,0,1-.56.56S53.8,80.49,53.34,80Z"/><path class="a" d="M25.51,78.26a12.22,12.22,0,0,1-4.42-1.42,18.71,18.71,0,0,1-1.78-1.16.72.72,0,0,1,.31,0,11,11,0,0,0,3.23.35c2.62,0,3.07-.12,8.13-2.31l2.7-1.17A11.4,11.4,0,0,1,39,71.41a15.08,15.08,0,0,1,3.1.29c1.22.22,1.26.22,1.26.29s-.31.12-.94,0a7.8,7.8,0,0,0-3.72.24,9.48,9.48,0,0,0-3.36,2.12A15.31,15.31,0,0,1,30,77.71a10.43,10.43,0,0,1-4.48.55Z"/><path class="a" d="M21,73.19a14.89,14.89,0,0,1-7.38-2.85,17.78,17.78,0,0,1-2.07-2s.14,0,.33.1a16.88,16.88,0,0,0,3,1.12,15,15,0,0,0,3.79.55A54.86,54.86,0,0,1,27,71c.77.13,1.49.24,1.59.27l.2,0L28.6,71a1.28,1.28,0,0,0-.49-.53,4,4,0,0,0-1.35-.57c-2.16-.65-3.87-2.24-5.19-4.83-.48-.93-1.76-3.76-1.72-3.8a43.38,43.38,0,0,1,3.86,3.85,33.28,33.28,0,0,0,3.76,3.75,17.58,17.58,0,0,0,4,2.15l.23.1-.17.05c-.23.07-3.27.83-5.55,1.38-1,.24-2.06.48-2.36.52a17.54,17.54,0,0,1-2.67.11Z"/><path class="a" d="M65.58,72.6a15.55,15.55,0,0,1-2.53-.46c-.74-.17-2.41-.53-3.71-.79s-2.38-.5-2.4-.52a4.66,4.66,0,0,1,1-.53A15.14,15.14,0,0,0,60.32,69c1.24-.88,2-1.59,4.42-4.35,1.05-1.18,2.13-2.39,2.42-2.69a6.47,6.47,0,0,1,1.21-1.11s-1,2.64-1.47,3.53a11.86,11.86,0,0,1-2.37,3.47,6.07,6.07,0,0,1-2.25,1.38c-1.75.74-1.76.75-2.12,1.12s-.33.36-.25.44.28,0,2-.27a49.36,49.36,0,0,1,7.52-1c.9,0,1.89-.13,2.2-.17a13.61,13.61,0,0,0,5.18-1.87c.14-.09.28-.16.29-.14a4.39,4.39,0,0,1-.51.63,14,14,0,0,1-11,4.65Z"/><path class="a" d="M19.54,67.77c-.52-.13-1.53-.34-2.24-.47A18,18,0,0,1,12.77,66,18,18,0,0,1,9,63.72a20.13,20.13,0,0,1-2.57-2.57,19.64,19.64,0,0,1-2.28-3.72L4,57.07l.17.15c.08.08.45.42.79.76A13.69,13.69,0,0,0,8.63,60.6,68,68,0,0,1,17.21,66a9.37,9.37,0,0,0,1.66,1.1,2.88,2.88,0,0,0-.17-1,10.34,10.34,0,0,0-.7-.77,11.3,11.3,0,0,1-2.4-3.37,15.48,15.48,0,0,1-1.4-5c-.1-.68-.32-2-.5-3s-.3-1.8-.29-1.81a7.05,7.05,0,0,1,1,1.33c.67,1.06,1,1.74,2.67,6.6A32.84,32.84,0,0,0,20,66.68c.39.71.72,1.29.72,1.3S20.47,68,19.54,67.77Z"/><path class="a" d="M68,66.91a20.86,20.86,0,0,0,1.41-2.54,43.4,43.4,0,0,0,1.79-5C72.76,54.51,73,54,73.63,52.83a13.16,13.16,0,0,1,1.07-1.57c.06.06-.87,6-1.17,7.54a10.66,10.66,0,0,1-3,5.69c-.87.94-1,1.18-.91,1.57a.17.17,0,0,0,.19.13c.18,0,.26,0,.93-.6s6-4.07,8.44-5.58a17.46,17.46,0,0,0,4.1-3.15c.5-.51.92-.93.93-.93a12,12,0,0,1-.76,1.68,16.75,16.75,0,0,1-7.27,7.3,18.65,18.65,0,0,1-4.81,1.64c-.87.19-2,.45-3.61.84-.12,0-.09,0,.2-.48Z"/><path class="a" d="M11.32,59.18a35.2,35.2,0,0,1-6.78-5.24A14.79,14.79,0,0,1,.32,46.6,16.55,16.55,0,0,1,0,44.09v-.32l.24.52a19.15,19.15,0,0,0,3.37,4.84c.39.43.91,1,1.16,1.35.73.89,2.78,3.62,4.2,5.57a8.9,8.9,0,0,0,1.07,1.31l.31.21c.09,0,.22-.37.22-.64s-.07-.49-.48-1.11a8,8,0,0,1-1.17-3.07,9.82,9.82,0,0,1-.1-1.86,38.47,38.47,0,0,1,.49-5.64c.15-1.28.28-2.35.28-2.36s0,0,.07,0a9.23,9.23,0,0,1,.53,2.23c.13.88.52,4.48.81,7.41.14,1.48.3,3,.35,3.34a15.17,15.17,0,0,0,.94,3.64,1.31,1.31,0,0,1,.13.37s-.52-.3-1.11-.67Z"/><path class="a" d="M75.89,58.87a14.63,14.63,0,0,0,.64-1.94,21.81,21.81,0,0,0,.52-4.55c.1-2,.16-2.8.32-4.19s.73-5.85.79-6.06l0-.18,0,.15c.09.37.74,4.09.85,4.8a17.53,17.53,0,0,1,.18,3.75A8.84,8.84,0,0,1,78,55.11a1.48,1.48,0,0,0-.33.82,1.15,1.15,0,0,0,.21.79,2.68,2.68,0,0,0,.56-.51,18.23,18.23,0,0,0,1.77-2.45A38.11,38.11,0,0,1,84,48.61c1.17-1.33,1.35-1.54,1.76-2.09a17.57,17.57,0,0,0,1.64-2.81l.48-1v.72a12.08,12.08,0,0,1-1.35,5.38c-1.25,2.59-3.32,4.89-6.78,7.55C78.86,57,76,59,75.86,59s0-.07,0-.17Z"/><path class="a" d="M5.62,47.47c-.34-.46-.94-1.25-1.34-1.77a17.27,17.27,0,0,1-3.21-5.59,18.54,18.54,0,0,1-1-6.66,13.63,13.63,0,0,1,.27-2.8s.06.13.09.35a12.2,12.2,0,0,0,1,3.55c.21.49.63,1.53.94,2.3L3.26,39a16.19,16.19,0,0,1,.93,3.55,13.82,13.82,0,0,0,.8,3c.14.32.21.4.41.5s.28.14.41-.24c.06-.2.05-.32-.09-1.06A14.26,14.26,0,0,1,5.58,41a14,14,0,0,1,1.51-4.91c1.15-2.19,2.19-4.06,2.21-4s-.18,2-.33,3S8.42,38,7.13,43.07a24.22,24.22,0,0,0-.76,4.06c-.06.63-.12,1.16-.13,1.16l-.62-.82Z"/><path class="a" d="M81.71,46.74a20.35,20.35,0,0,0-1.19-5.52c-.34-1-.77-2.47-1.06-3.66a41,41,0,0,1-1-5.69l0-.59.23.38a50.3,50.3,0,0,1,2.89,5.44A12.69,12.69,0,0,1,82.19,44c-.1.51-.11.59,0,.76.15.36.16.36.39.27s.24-.16.41-.53a5.18,5.18,0,0,0,.47-1.71,35.77,35.77,0,0,1,2.35-8.2,26,26,0,0,0,1.32-4.18,3.52,3.52,0,0,1,.21-.72,10.49,10.49,0,0,1,.28,1.73,26,26,0,0,1,0,3.84,18,18,0,0,1-2.39,7.24A19.15,19.15,0,0,1,83.51,45c-.31.39-.82,1.09-1.15,1.54s-.59.82-.6.82a5,5,0,0,1-.05-.57Z"/><path class="a" d="M4.43,35.35c-.5-1.73-.81-2.77-1.15-3.84-1.11-3.46-1.34-4.62-1.35-6.65a13.3,13.3,0,0,1,1.15-5.52,12.24,12.24,0,0,1,.85-1.66c.08-.11.08-.09,0,.17a13.1,13.1,0,0,0-.06,1.59A18.38,18.38,0,0,0,4,22.08a42.74,42.74,0,0,1,.35,6,29,29,0,0,1-.08,3.05,8.71,8.71,0,0,0-.08,1,1.61,1.61,0,0,0,.33.83c.08,0,.45-.29.54-.5s.16-.55.25-1a11,11,0,0,1,3.27-6.2c.29-.27,1.09-1.09,1.77-1.83s1.25-1.31,1.26-1.3a12,12,0,0,1-.47,1.88,17.86,17.86,0,0,1-2.5,4.57,47.91,47.91,0,0,0-3.27,5.47c-.36.73-.71,1.41-.76,1.5l-.1.17Z"/><path class="a" d="M83.07,34.74c0-.07-.16-.35-.28-.65a22.41,22.41,0,0,0-2.65-4.57c-2.93-4.26-3.35-5-3.86-6.41a9.75,9.75,0,0,1-.5-1.81s.64.61,1.39,1.37,1.74,1.76,2.18,2.19a7.25,7.25,0,0,1,1.25,1.47,12.33,12.33,0,0,1,1.68,4.09c.11.47.23.93.26,1s.5.59.58.54a1.58,1.58,0,0,0,.16-.26c.15-.29.15-.46,0-2.7a43.82,43.82,0,0,1,0-7.06,38.79,38.79,0,0,0,.11-5.05l0-.29.21.33a17.33,17.33,0,0,1,1.15,2.43,17.13,17.13,0,0,1,.7,2.78,12.88,12.88,0,0,1,.1,2.06,16.4,16.4,0,0,1-.92,5.51c-.16.56-.57,1.92-.89,3s-.58,2-.6,2,0,0-.07-.06Z"/><path class="a" d="M6.38,24.37c0-.07,0-1-.09-2.12a42.5,42.5,0,0,1,.06-6.18,11.27,11.27,0,0,1,.75-2.3,11.45,11.45,0,0,1,1.18-1.84,16.05,16.05,0,0,1,1.6-1.61,2,2,0,0,1-.18.48,18.83,18.83,0,0,0-1.34,4.83,29.71,29.71,0,0,1-1.17,4.66,8.53,8.53,0,0,0-.41,1.44c0,.39.07.61.21.71s.36,0,.79-.89a11.84,11.84,0,0,1,2.5-3.47c.19-.17.85-.7,1.46-1.18a25,25,0,0,0,3.12-2.72l.6-.65-.11.41a8.22,8.22,0,0,1-1.12,2.4,24,24,0,0,1-4.11,4.49c-.78.71-1.94,1.83-2.57,2.48-.88.89-1.17,1.16-1.17,1.06Z"/><path class="a" d="M79.17,21.69c-4.87-4.42-5.87-5.47-6.65-7A9.47,9.47,0,0,1,71.85,13a3.34,3.34,0,0,1,.64.57,23.55,23.55,0,0,0,3,2.43A17.79,17.79,0,0,1,77.8,17.9a11.93,11.93,0,0,1,1.83,2.62c.32.61.64,1,.81,1s.31-.22.31-.4a15.93,15.93,0,0,0-.46-1.65c-.87-2.81-1.09-3.61-1.66-5.87a15.63,15.63,0,0,0-1.16-3.71c-.33-.66-.31-.66.44,0A9.56,9.56,0,0,1,81,15.24a19.31,19.31,0,0,1,.18,4.87c0,1.53-.07,2.9-.08,3.05v.26l-1.9-1.73Z"/><path class="a" d="M10.63,15.13a16.86,16.86,0,0,1,.55-2.26,11.48,11.48,0,0,1,5.54-6.82,14.59,14.59,0,0,1,1.78-.81s-2,3.2-2.71,4.23a30,30,0,0,1-2,2.67,32.84,32.84,0,0,1-3.16,3Z"/><path class="a" d="M75.75,13.48A19.31,19.31,0,0,1,71.09,8.3c-.47-.71-1.22-1.83-1.68-2.49a9.19,9.19,0,0,1-.78-1.22,6.55,6.55,0,0,1,1.46.54,12.6,12.6,0,0,1,6.27,7.65,7.77,7.77,0,0,1,.28,1.41l-.89-.71Z"/><polygon class="b" points="38.34 0 49.42 9.86 49.42 51.43 38.34 61.29 38.34 0"/><polygon class="a" points="51.38 11.34 61.2 19.38 61.2 53.26 51.38 61.29 51.38 11.34"/><polygon class="a" points="36.41 11.34 26.59 19.38 26.59 53.26 36.41 61.29 36.41 11.34"/><polygon class="c" points="53.25 37.65 53.07 37.58 56.2 23.98 56.37 24.05 53.25 37.65"/><rect class="c" x="56.29" y="24.02" width="0.18" height="13.6"/><polygon class="c" points="34.66 37.65 34.84 37.58 31.71 23.98 31.54 24.05 34.66 37.65"/><polygon class="c" points="28.19 37.65 31.71 24.06 31.54 23.98 28.01 37.57 28.19 37.65"/><rect class="c" x="31.53" y="24.02" width="0.18" height="13.6"/><path class="c" d="M28,37.06a1.11,1.11,0,0,0-1.06,1.77,5.43,5.43,0,0,0,4.44,2.76,5.43,5.43,0,0,0,4.44-2.76,1.11,1.11,0,0,0-1.06-1.77Z"/><path class="d" d="M31.19,23.57a.51.51,0,0,1,.43-.56c.24,0,.42.25.43.56v.29a.93.93,0,0,1-.87,0Zm.19,0c0,.18.11.33.24.33s.25-.15.25-.33V23.4a.53.53,0,0,0-.49,0Z"/><path class="e" d="M31.19,23.57a.51.51,0,0,1,.43-.56c.24,0,.42.25.43.56v.29a.93.93,0,0,1-.87,0Zm.19,0c0,.18.11.33.24.33s.25-.15.25-.33V23.4a.53.53,0,0,0-.49,0Z"/><path class="e" d="M31.19,23.57a.51.51,0,0,1,.43-.56c.24,0,.42.25.43.56v.29a.93.93,0,0,1-.87,0Zm.19,0c0,.18.11.33.24.33s.25-.15.25-.33V23.4a.53.53,0,0,0-.49,0Z"/><path class="c" d="M58.85,21.74c0-.13-.11-.28-.22-.26s-.11.08-.14.15a2.1,2.1,0,0,0-.06.24.66.66,0,0,1-.25.35h0l-2,.4s-1.06.21-4.89-1.15-4.79-1.33-4.79-1.33c-1.09.1-2,.44-2,.76a9.81,9.81,0,0,0,.06,1c0,.23,1,.35,2.05.27a15.06,15.06,0,0,1,4.79.47c3.72,1.14,4.84.86,4.84.86,1.07-.27,2.06-.53,2.2-.58l.11-.09.1-.12A1.34,1.34,0,0,0,58.85,21.74Z"/><path class="c" d="M59.76,37.17A1.14,1.14,0,0,1,60.87,39s-1.56,3.12-4.58,3.12S51.7,39,51.7,39a1.14,1.14,0,0,1,1.11-1.78Z"/><path class="c" d="M56.71,23.88a.91.91,0,0,1-.85,0v-.31a.51.51,0,0,1,.43-.56c.23,0,.42.25.42.56Zm-.18-.48a.53.53,0,0,0-.49,0v.17c0,.18.11.33.25.33s.24-.15.24-.33Z"/><path class="c" d="M56.71,23.88a.91.91,0,0,1-.85,0v-.31a.51.51,0,0,1,.43-.56c.23,0,.42.25.42.56Zm-.18-.48a.53.53,0,0,0-.49,0v.17c0,.18.11.33.25.33s.24-.15.24-.33Z"/><path class="d" d="M56.71,23.88a.91.91,0,0,1-.85,0v-.31a.51.51,0,0,1,.43-.56c.23,0,.42.25.42.56Zm-.18-.48a.53.53,0,0,0-.49,0v.17c0,.18.11.33.25.33s.24-.15.24-.33Z"/><path class="f" d="M56.71,23.88a.91.91,0,0,1-.85,0v-.31a.51.51,0,0,1,.43-.56c.23,0,.42.25.42.56Zm-.18-.48a.53.53,0,0,0-.49,0v.17c0,.18.11.33.25.33s.24-.15.24-.33Z"/><path class="f" d="M56.71,23.88a.91.91,0,0,1-.85,0v-.31a.51.51,0,0,1,.43-.56c.23,0,.42.25.42.56Zm-.18-.48a.53.53,0,0,0-.49,0v.17c0,.18.11.33.25.33s.24-.15.24-.33Z"/><path class="c" d="M29.06,21.74c0-.13.11-.28.22-.26s.11.08.14.15a2.1,2.1,0,0,1,.06.24.66.66,0,0,0,.25.35h0l2,.4s1.05.21,4.89-1.15,4.75-1.31,4.75-1.31c1.1.12,2,.46,2,.74a7.55,7.55,0,0,1,0,1c0,.25-1,.39-2.06.31a15.06,15.06,0,0,0-4.79.47c-3.73,1.14-4.84.86-4.84.86-1.07-.27-2.06-.53-2.2-.58l-.11-.09-.1-.12A1.34,1.34,0,0,1,29.06,21.74Z"/><path class="c" d="M44,46.72h-.75a14.75,14.75,0,0,1-.53-3.91s.44-22.91.62-22.91h1.2c.18,0,.76,24.89.76,24.89C45.31,45.84,44.72,46.72,44,46.72Z"/><path class="c" d="M47.19,48.4s-.9,0-2,0H42.84c-1.1,0-2,0-2,0h0c0-1.39.9-2.52,1.42-2.52h3.61c.52,0,1.32,1.13,1.32,2.52Z"/><ellipse class="c" cx="43.98" cy="18.83" rx="0.95" ry="1.25"/><path class="c" d="M44.49,17.19c0,.43-.23.78-.51.78s-.51-.35-.51-.78.34-1.71.51-1.71A4,4,0,0,1,44.49,17.19Z"/><path class="c" d="M47.6,49.48H40.44c-.07,0-.13-.27-.13-.6h0c0-.34.06-.61.13-.61H47.6c.07,0,.13.27.13.61h0C47.73,49.21,47.67,49.48,47.6,49.48Z"/><polygon class="c" points="59.41 37.56 59.59 37.49 56.46 23.9 56.29 23.97 59.41 37.56"/><path class="a" d="M117.48,39.45V55.13H115.8l-9.87-15.64V49.92c0,3.39.33,4,2.73,4v1H101.6v-1c2.41,0,2.71-.57,2.71-4V39.45c0-3.38-.3-3.92-2.71-3.92v-1h5.59l8.7,13.72V39.45c0-3.38-.3-3.92-2.7-3.92v-1h7v1C117.81,35.53,117.48,36.07,117.48,39.45Z"/><path class="a" d="M130.24,54.86v-1c2.58,0,2.85-.64,2.19-2.57l-1.05-3.05h-5.94l-1,3.05c-.66,1.93-.33,2.57,2.16,2.57v1h-7.09v-1c1.92,0,2.61-.54,3.46-3l5.7-16.56h1.8l5.76,16.56c.81,2.34,1.29,3,3.39,3v1Zm-1.77-15.47L126,46.67h4.83Z"/><path class="a" d="M154,54.86v-1c2.4,0,2.7-.57,2.7-4V39L151,55.07h-1.38L144.08,39v11c0,3.39.33,4,2.73,4v1h-7.06v-1c2.4,0,2.7-.57,2.7-4V39.45c0-3.38-.3-3.92-2.7-3.92v-1h6.46l5.25,15.11,5.28-15.11h6.12v1c-2.43,0-2.73.54-2.73,3.92V49.92c0,3.39.3,4,2.73,4v1Z"/><path class="a" d="M186.13,38.47,180.39,55h-1.77l-5.76-16.56c-.81-2.34-1.32-2.94-3.42-2.94v-1h9.42v1c-2.55,0-2.82.67-2.19,2.57l4,11.62,3.94-11.62c.63-1.93.32-2.57-2.17-2.57v-1h7.18v1C187.63,35.53,187,36.07,186.13,38.47Z"/><path class="a" d="M189.73,54.86v-1c2.4,0,2.7-.57,2.7-4V39.45c0-3.38-.3-3.92-2.7-3.92v-1h9v1c-2.4,0-2.73.54-2.73,3.92V49.92c0,3.39.33,4,2.73,4v1Z"/><path class="a" d="M215.6,54.86H201.1v-1c2.4,0,2.7-.57,2.7-4V39.45c0-3.38-.3-3.92-2.7-3.92v-1h13.48l.27,5H214l-.15-.68c-.39-1.69-.72-2.54-3.42-2.54h-3v7h.93c2.7,0,3.12-.31,3.12-3.15h.84v8h-.84c0-2.84-.42-3.15-3.12-3.15h-.93v4.24c0,3.38.3,3.93,2.79,3.93h1.23c2.7,0,3.06-.88,3.42-2.58l.15-.68h.84Z"/><path class="a" d="M232.35,39.49l-.15-.68c-.39-1.69-.72-2.54-3.45-2.54h-2V49.92c0,3.39.33,4,2.74,4v1h-9.07v-1c2.4,0,2.73-.57,2.73-4V36.27h-1.95c-2.7,0-3.06.85-3.45,2.54l-.15.68h-.84l.27-5h15.85l.24,5Z"/><path class="a" d="M255.55,54.86H240.93v-1c2.4,0,2.7-.57,2.7-4V39.45c0-3.38-.3-3.92-2.7-3.92v-1h9v1c-2.41,0-2.74.54-2.74,3.92v9.72c0,3.39.3,4,2.8,4h1.41c2.7,0,3-.88,3.39-2.58l.15-.68h.81Z"/><path class="a" d="M266.32,54.86v-1c2.59,0,2.86-.64,2.2-2.57l-1-3.05h-6l-1,3.05c-.66,1.93-.33,2.57,2.16,2.57v1h-7.08v-1c1.92,0,2.61-.54,3.45-3l5.7-16.56h1.8l5.77,16.56c.81,2.34,1.29,3,3.39,3v1Zm-1.77-15.47-2.46,7.28h4.83Z"/><path class="a" d="M296.55,38.47,291.87,55h-1.71l-3.91-13.85L282.38,55h-1.71L276,38.47c-.66-2.3-1.17-2.94-3.42-2.94v-1h9.36v1c-2.37,0-2.73.57-2.19,2.57l2.94,10.53,3.9-14.09h1.62l4,14.09,2.94-10.53c.51-1.9.24-2.57-2-2.57v-1H300v1C297.72,35.53,297.21,36.17,296.55,38.47Z"/><path class="g" d="M102,18.93v-.37h2.51v.37l-1.16.14h-.19Zm1.35,5.18,1.16.14v.37H102v-.37l1.16-.14Zm-.51-2.74c0-.93,0-1.87,0-2.81h.89c0,.92,0,1.86,0,2.81v.44c0,.93,0,1.87,0,2.81h-.89c0-.92,0-1.86,0-2.81Z"/><path class="g" d="M105.26,24.25l.94-.14h.18l1,.14v.37h-2.15Zm.56-5.4.55.22-1.07-.14v-.37h1.38l3.66,5.13v1H110Zm.2-.29.45.37v5.69H106Zm2.93,0h2.15v.37l-.89.14H110L109,18.93Zm.94,0h.45v6.12l-.45-.46Z"/><path class="g" d="M112.75,19.07l-1.16-.14v-.37H114V19l-1.08.1Zm-.65-.51h.9l1.76,5.11h-.19l1.71-5.12h.48l-2,6.12h-.38Zm4.12.51-.89-.1v-.41h2v.37l-1,.14Z"/><path class="g" d="M117.86,18.93v-.37h1.25v.51H119Zm1.25,5.18v.51h-1.25v-.37l1.16-.14Zm-.42-2.74c0-.93,0-1.87,0-2.81h.89c0,.92,0,1.86,0,2.81v.34c0,1,0,2,0,2.91h-.89c0-.92,0-1.86,0-2.81Zm2.87-2.81L122,19h-2.87v-.46h3.18l.06,1.61h-.51Zm-.44,3.18h-2v-.43h2ZM122.53,23l-.06,1.61h-3.36v-.46h3l-.42.46L122,23Zm-1.69-1.6.13-1h.41v2.14H121l-.13-1Z"/><path class="g" d="M126.29,23.21c0-.58-.35-.84-1.11-1.15l-.34-.14c-.91-.36-1.54-.89-1.54-1.82s.87-1.67,2-1.67a2.39,2.39,0,0,1,1.47.47l-.06,1.19h-.55l-.25-1.37.58.3v.45a1.63,1.63,0,0,0-1.24-.59c-.68,0-1.2.35-1.2,1s.36.9,1,1.15l.35.14c1.18.46,1.63,1,1.63,1.84,0,1.07-.87,1.72-2.11,1.72a3.34,3.34,0,0,1-1.74-.48l0-1.27h.55l.23,1.4-.58-.25v-.43a2.18,2.18,0,0,0,1.46.58C125.74,24.3,126.29,23.9,126.29,23.21Z"/><path class="g" d="M127.65,24.25l.94-.14h.19l.87.14v.37h-2Zm0-5.69h1.18v.51h-.11l-1.07-.14Zm.8,0h.38l.08,2.72v3.34h-.46Zm0,0h.83l2.15,5.37h-.3l2-5.37h.48l-2.31,6.06h-.45Zm4,5.69,1.08-.14h.19l1.16.14v.37h-2.43Zm.77-2.43V18.56h.85c0,.92,0,1.86,0,2.81v.44c0,.94,0,1.88,0,2.81h-.87C133.28,23.7,133.28,22.76,133.28,21.82Zm.41-3.26h1.25v.37l-1.16.14h-.09Z"/><path class="g" d="M135.74,18.93v-.37H137v.51h-.1ZM137,24.11v.51h-1.26v-.37l1.16-.14Zm-.42-2.74c0-.93,0-1.87,0-2.81h.89c0,.92,0,1.86,0,2.81v.34c0,1,0,2,0,2.91h-.89c0-.92,0-1.86,0-2.81Zm2.87-2.81.41.46H137v-.46h3.17l.06,1.61h-.51ZM139,21.74h-2v-.43h2Zm1.4,1.27-.06,1.61H137v-.46h3l-.42.46L139.9,23Zm-1.69-1.6.14-1h.4v2.14h-.4l-.14-1Z"/><path class="g" d="M141.07,24.25l.93-.14h.19l1,.14v.37h-2.15Zm.55-5.4.55.22-1.06-.14v-.37h1.37l3.67,5.13v1h-.31Zm.21-.29.45.37v5.69h-.45Zm2.93,0h2.15v.37l-.89.14h-.18l-1.08-.14Zm.94,0h.45v6.12l-.45-.46Z"/><path class="g" d="M147.82,19l.42-.46L148,20.18h-.52l.07-1.62h4.89l.06,1.62H152l-.28-1.62.41.46Zm2.23,5.09,1.25.14v.37h-2.69v-.37l1.25-.14Zm-.52-2.74c0-.93,0-1.87,0-2.81h.89c0,.92,0,1.86,0,2.81v.44c0,.93,0,1.87,0,2.81h-.89c0-.92,0-1.86,0-2.81Z"/><path class="g" d="M159.6,23.72v.5l-.55.13.23-1.35h.55l0,1.32a3.76,3.76,0,0,1-1.8.43,3,3,0,0,1-3-3.16,3,3,0,0,1,3-3.16,3.39,3.39,0,0,1,1.72.43l0,1.32h-.55L159,18.83l.55.13v.55a2,2,0,0,0-1.41-.63c-1.19,0-2.16.94-2.16,2.71s.87,2.71,2.09,2.71A2.42,2.42,0,0,0,159.6,23.72Z"/><path class="g" d="M166.05,21.59a2.89,2.89,0,0,1-2.72,3.16,2.85,2.85,0,0,1-2.73-3.16,2.9,2.9,0,0,1,2.73-3.16A2.85,2.85,0,0,1,166.05,21.59Zm-2.72,2.71c1.23,0,1.75-1.35,1.75-2.71s-.52-2.71-1.75-2.71-1.76,1.35-1.76,2.71S162.09,24.3,163.33,24.3Z"/><path class="g" d="M166.65,24.25l.93-.14h.19l1,.14v.37h-2.15Zm.55-5.4.55.22-1.06-.14v-.37h1.37l3.67,5.13v1h-.31Zm.2-.29.46.37v5.69h-.46Zm2.94,0h2.15v.37l-.89.14h-.19l-1.07-.14Zm.94,0h.45v6.12l-.45-.46Z"/><path class="g" d="M176.21,23.21c0-.58-.35-.84-1.11-1.15l-.34-.14c-.91-.36-1.54-.89-1.54-1.82s.87-1.67,2-1.67a2.39,2.39,0,0,1,1.47.47l-.06,1.19h-.55l-.25-1.37.58.3v.45a1.63,1.63,0,0,0-1.24-.59c-.68,0-1.2.35-1.2,1s.36.9,1,1.15l.35.14c1.18.46,1.63,1,1.63,1.84,0,1.07-.87,1.72-2.11,1.72a3.34,3.34,0,0,1-1.74-.48l0-1.27h.55l.24,1.4-.59-.25v-.43a2.18,2.18,0,0,0,1.46.58C175.66,24.3,176.21,23.9,176.21,23.21Z"/><path class="g" d="M177.4,18.93v-.37h2.52v.37l-1.17.14h-.18Zm3.07,5.18c1,0,1.52-.59,1.52-2.19V18.56h.46v3.58c0,1.9-.91,2.61-2.13,2.61s-2.17-.72-2.17-2.41v-1c0-.93,0-1.87,0-2.8H179c0,.92,0,1.85,0,2.8v.72C179,23.62,179.56,24.11,180.47,24.11Zm1.59-5-1-.14v-.37h2.14v.37l-1,.14Z"/><path class="g" d="M183.74,18.93v-.37h2.52v.37l-1.16.14h-.19ZM185,24.11v.51h-1.26v-.37l1.17-.14Zm-.45-5.55h.9c0,.93,0,1.88,0,2.81V22c0,.77,0,1.71,0,2.63h-.9c0-.93,0-1.87,0-2.8v-.45C184.58,20.42,184.58,19.48,184.55,18.56Zm3.72,4.35-.09,1.71H185v-.46h2.87l-.5.46.35-1.71Z"/><path class="g" d="M188.5,19l.42-.46-.28,1.62h-.52l.07-1.62h4.89l.07,1.62h-.52l-.28-1.62.42.46Zm2.23,5.09,1.25.14v.37h-2.69v-.37l1.25-.14Zm-.52-2.74c0-.93,0-1.87,0-2.81h.89c0,.92,0,1.86,0,2.81v.44c0,.93,0,1.87,0,2.81h-.89c0-.92,0-1.86,0-2.81Z"/><path class="g" d="M193.72,18.93v-.37h2.52v.37l-1.17.14h-.18Zm1.35,5.18,1.17.14v.37h-2.52v-.37l1.17-.14Zm-.51-2.74c0-.93,0-1.87,0-2.81h.9c0,.92,0,1.86,0,2.81v.44c0,.93,0,1.87,0,2.81h-.9c0-.92,0-1.86,0-2.81Z"/><path class="g" d="M197,24.25l.94-.14h.18l1,.14v.37H197Zm.56-5.4.55.22L197,18.93v-.37h1.37l3.67,5.13v1h-.31Zm.2-.29.45.37v5.69h-.45Zm2.94,0h2.15v.37l-.9.14h-.18l-1.07-.14Zm.94,0h.45v6.12l-.45-.46Z"/><path class="g" d="M208.38,24.22a4,4,0,0,1-2,.53,3,3,0,0,1-3-3.16,3,3,0,0,1,3-3.16,3.32,3.32,0,0,1,1.79.43l0,1.32h-.55l-.23-1.35.56.18v.51a2.15,2.15,0,0,0-1.52-.64c-1.23,0-2.14,1-2.14,2.71s.83,2.7,2.2,2.7a2.79,2.79,0,0,0,1.36-.37l-.41.44v-.54c0-.69,0-1.39,0-2.08h.89c0,.68,0,1.38,0,2.08Zm-1.78-2.11v-.37h2.34v.37l-1,.09h-.2Z"/><path class="g" d="M211.55,18.93v-.37h1.26v.51h-.09Zm1.36,5.18,1.16.14v.37h-2.52v-.37l1.17-.14Zm-.52-2.74c0-.93,0-1.87,0-2.81h.9c0,.92,0,1.86,0,2.81v.34c0,1,0,2,0,2.91h-.9c0-.92,0-1.86,0-2.81Zm2.87-2.81.42.46h-2.87v-.46H216l.06,1.61h-.51Zm-.37,3.18h-2.08v-.43h2.08Zm-.29-.33.14-1h.4v2.23h-.4l-.14-1Z"/><path class="g" d="M216.62,18.93v-.37h1.26v.51h-.09ZM218,24.11l1.16.14v.37h-2.51v-.37l1.17-.14Zm-.51-2.74c0-.93,0-1.87,0-2.81h.89c0,.94,0,1.83,0,2.89v.28c0,1,0,1.95,0,2.89h-.89c0-.92,0-1.86,0-2.81Zm.42,0H219c1,0,1.41-.52,1.41-1.24S220,19,219.08,19h-1.2v-.43h1.23c1.37,0,2.17.59,2.17,1.59,0,.76-.6,1.46-1.79,1.56l0-.07c.68.06,1.07.37,1.31,1.19l.42,1.49-.3-.18.94.11v.37a2.28,2.28,0,0,1-.66.09c-.56,0-.81-.15-.92-.58L220,22.68c-.17-.73-.5-.86-1.23-.86h-.85Z"/><path class="g" d="M222.42,18.93v-.37h2.51v.37l-1.16.14h-.18Zm1.35,5.18,1.16.14v.37h-2.51v-.37l1.17-.14Zm-.51-2.74c0-.93,0-1.87,0-2.81h.89c0,.92,0,1.86,0,2.81v.44c0,.93,0,1.87,0,2.81h-.89c0-.92,0-1.86,0-2.81Z"/><path class="g" d="M225.68,24.25l.94-.14h.18l.87.14v.37h-2Zm0-5.69h1.18v.51h-.11l-1.07-.14Zm.8,0h.38l.08,2.72v3.34h-.46Zm0,0h.84l2.14,5.37h-.3l2-5.37h.47l-2.3,6.06h-.45Zm4,5.69,1.07-.14h.19l1.17.14v.37h-2.43Zm.76-2.43V18.56h.85c0,.92,0,1.86,0,2.81v.44c0,.94,0,1.88,0,2.81h-.88C231.3,23.7,231.3,22.76,231.3,21.82Zm.41-3.26H233v.37l-1.16.14h-.09Z"/></svg>